<mxfile host="app.diagrams.net" agent="Mozilla/5.0 (Windows NT 10.0; Win64; x64) AppleWebKit/537.36 (KHTML, like Gecko) Chrome/137.0.0.0 Safari/537.36 Edg/137.0.0.0" version="27.1.3">
  <diagram name="第 1 页" id="SNnUAwdkBXaZDfroSAXm">
    <mxGraphModel dx="1546" dy="836" grid="1" gridSize="10" guides="1" tooltips="1" connect="1" arrows="1" fold="1" page="1" pageScale="1" pageWidth="1200" pageHeight="1920" math="0" shadow="0">
      <root>
        <mxCell id="0" />
        <mxCell id="1" parent="0" />
        <mxCell id="p0UAz1oqiwNftaLXpi3x-13" style="rounded=0;orthogonalLoop=1;jettySize=auto;html=1;exitX=0.5;exitY=0;exitDx=0;exitDy=0;entryX=0.5;entryY=1;entryDx=0;entryDy=0;verticalAlign=middle;endArrow=none;startFill=0;fontFamily=宋体;" parent="1" source="p0UAz1oqiwNftaLXpi3x-1" target="p0UAz1oqiwNftaLXpi3x-2" edge="1">
          <mxGeometry relative="1" as="geometry" />
        </mxCell>
        <mxCell id="p0UAz1oqiwNftaLXpi3x-14" style="rounded=0;orthogonalLoop=1;jettySize=auto;html=1;exitX=1;exitY=0;exitDx=0;exitDy=0;entryX=0.5;entryY=1;entryDx=0;entryDy=0;endArrow=none;startFill=0;fontFamily=宋体;" parent="1" source="p0UAz1oqiwNftaLXpi3x-1" target="p0UAz1oqiwNftaLXpi3x-3" edge="1">
          <mxGeometry relative="1" as="geometry" />
        </mxCell>
        <mxCell id="p0UAz1oqiwNftaLXpi3x-16" style="rounded=0;orthogonalLoop=1;jettySize=auto;html=1;entryX=1;entryY=0.5;entryDx=0;entryDy=0;endArrow=none;startFill=0;fontFamily=宋体;" parent="1" source="p0UAz1oqiwNftaLXpi3x-1" target="p0UAz1oqiwNftaLXpi3x-9" edge="1">
          <mxGeometry relative="1" as="geometry" />
        </mxCell>
        <mxCell id="p0UAz1oqiwNftaLXpi3x-1" value="检验员" style="rounded=0;whiteSpace=wrap;html=1;fontFamily=宋体;" parent="1" vertex="1">
          <mxGeometry x="544" y="387" width="80" height="40" as="geometry" />
        </mxCell>
        <mxCell id="p0UAz1oqiwNftaLXpi3x-2" value="检验名姓名" style="ellipse;whiteSpace=wrap;html=1;fontFamily=宋体;" parent="1" vertex="1">
          <mxGeometry x="554" y="300" width="60" height="40" as="geometry" />
        </mxCell>
        <mxCell id="p0UAz1oqiwNftaLXpi3x-3" value="创建时间" style="ellipse;whiteSpace=wrap;html=1;fontFamily=宋体;" parent="1" vertex="1">
          <mxGeometry x="630" y="340" width="60" height="40" as="geometry" />
        </mxCell>
        <mxCell id="p0UAz1oqiwNftaLXpi3x-21" style="rounded=0;orthogonalLoop=1;jettySize=auto;html=1;entryX=1;entryY=1;entryDx=0;entryDy=0;endArrow=none;startFill=0;fontFamily=宋体;" parent="1" source="p0UAz1oqiwNftaLXpi3x-5" target="p0UAz1oqiwNftaLXpi3x-1" edge="1">
          <mxGeometry relative="1" as="geometry" />
        </mxCell>
        <mxCell id="p0UAz1oqiwNftaLXpi3x-5" value="密码" style="ellipse;whiteSpace=wrap;html=1;fontFamily=宋体;" parent="1" vertex="1">
          <mxGeometry x="650" y="410" width="60" height="40" as="geometry" />
        </mxCell>
        <mxCell id="p0UAz1oqiwNftaLXpi3x-20" style="rounded=0;orthogonalLoop=1;jettySize=auto;html=1;entryX=0.75;entryY=1;entryDx=0;entryDy=0;endArrow=none;startFill=0;fontFamily=宋体;" parent="1" source="p0UAz1oqiwNftaLXpi3x-6" target="p0UAz1oqiwNftaLXpi3x-1" edge="1">
          <mxGeometry relative="1" as="geometry" />
        </mxCell>
        <mxCell id="p0UAz1oqiwNftaLXpi3x-6" value="主键" style="ellipse;whiteSpace=wrap;html=1;fontFamily=宋体;" parent="1" vertex="1">
          <mxGeometry x="614" y="470" width="70" height="40" as="geometry" />
        </mxCell>
        <mxCell id="p0UAz1oqiwNftaLXpi3x-19" style="rounded=0;orthogonalLoop=1;jettySize=auto;html=1;entryX=0.25;entryY=1;entryDx=0;entryDy=0;endArrow=none;startFill=0;fontFamily=宋体;" parent="1" source="p0UAz1oqiwNftaLXpi3x-7" target="p0UAz1oqiwNftaLXpi3x-1" edge="1">
          <mxGeometry relative="1" as="geometry" />
        </mxCell>
        <mxCell id="p0UAz1oqiwNftaLXpi3x-7" value="性别" style="ellipse;whiteSpace=wrap;html=1;fontFamily=宋体;" parent="1" vertex="1">
          <mxGeometry x="530" y="470" width="70" height="40" as="geometry" />
        </mxCell>
        <mxCell id="p0UAz1oqiwNftaLXpi3x-8" value="手机" style="ellipse;whiteSpace=wrap;html=1;fontFamily=宋体;" parent="1" vertex="1">
          <mxGeometry x="450" y="440" width="70" height="40" as="geometry" />
        </mxCell>
        <mxCell id="p0UAz1oqiwNftaLXpi3x-9" value="检验员账号" style="ellipse;whiteSpace=wrap;html=1;fontFamily=宋体;" parent="1" vertex="1">
          <mxGeometry x="440" y="380" width="70" height="40" as="geometry" />
        </mxCell>
        <mxCell id="p0UAz1oqiwNftaLXpi3x-10" value="头像" style="ellipse;whiteSpace=wrap;html=1;fontFamily=宋体;" parent="1" vertex="1">
          <mxGeometry x="474" y="320" width="70" height="40" as="geometry" />
        </mxCell>
        <mxCell id="p0UAz1oqiwNftaLXpi3x-17" style="rounded=0;orthogonalLoop=1;jettySize=auto;html=1;exitX=0;exitY=0;exitDx=0;exitDy=0;entryX=0.714;entryY=1;entryDx=0;entryDy=0;entryPerimeter=0;endArrow=none;startFill=0;fontFamily=宋体;" parent="1" source="p0UAz1oqiwNftaLXpi3x-1" target="p0UAz1oqiwNftaLXpi3x-10" edge="1">
          <mxGeometry relative="1" as="geometry" />
        </mxCell>
        <mxCell id="p0UAz1oqiwNftaLXpi3x-18" style="rounded=0;orthogonalLoop=1;jettySize=auto;html=1;exitX=0;exitY=1;exitDx=0;exitDy=0;entryX=1;entryY=0.25;entryDx=0;entryDy=0;entryPerimeter=0;endArrow=none;startFill=0;fontFamily=宋体;" parent="1" source="p0UAz1oqiwNftaLXpi3x-1" target="p0UAz1oqiwNftaLXpi3x-8" edge="1">
          <mxGeometry relative="1" as="geometry" />
        </mxCell>
      </root>
    </mxGraphModel>
  </diagram>
</mxfile>
